<svg height="110" viewBox="0 0 731 110" width="731" xmlns="http://www.w3.org/2000/svg"><g fill="none" fill-rule="evenodd"><g fill="#222" transform="translate(127 33)"><path d="m1.42583784.29468108c.77178378 0 1.49005405.5945946 2.5627027 1.78497297l17.14572976 18.57751355 17.0862702-18.57751355c1.1321081-1.19037837 1.784973-1.78497297 2.5627027-1.78497297 1.0084325 0 1.4258379.836 1.4258379 2.26183784v38.46313518c0 1.0667027-.4768649 1.5483243-1.5483243 1.5483243h-7.2052973c-1.0678919 0-1.6042163-.4816216-1.6042163-1.5483243v-17.9817298l-8.5134054 9.7037838c-1.0726486 1.1951351-1.6089729 1.6077838-2.263027 1.6077838-.5945946 0-1.1356757-.3591351-2.2035676-1.6077838l-8.5134054-9.7037838v17.9817298c0 1.0667027-.47686483 1.5483243-1.60778375 1.5483243h-7.20054054c-1.0774054 0-1.54951351-.4816216-1.54951351-1.5483243v-38.46313518c0-1.42583784.47210811-2.26183784 1.42583784-2.26183784"/><path d="m82.9195459 21.7883243c0-7.3824865-5.0611891-12.14756754-11.6124324-12.14756754-6.6047567 0-11.5482162 4.82929734-11.5482162 12.14756754 0 7.2647568 4.884 12.0262703 11.4899459 12.0262703 6.5512433 0 11.6707027-4.8197838 11.6707027-12.0262703m-11.6124324-21.67059457c12.98 0 22.3294054 8.98551351 22.3294054 21.61232437 0 12.6791351-9.4076757 21.6111351-22.4471351 21.6111351-12.7980541 0-22.1474595-8.8725406-22.1474595-21.4934054 0-12.68032434 9.4041081-21.73005407 22.2651892-21.73005407"/><path d="m101.479697.88987027h7.205298c1.130919 0 1.608973.47686487 1.608973 1.54951351v21.43394592c0 6.3692973 2.856432 9.9404325 8.453946 9.9404325 5.533297 0 8.513405-3.5711352 8.513405-9.9404325v-21.43394592c0-1.07264864.473297-1.54951351 1.549513-1.54951351h7.205298c1.126162 0 1.604216.47686487 1.604216 1.54951351v22.14745942c0 12.5614054-7.97827 18.7535136-19.231568 18.7535136-10.776432 0-18.4585942-5.8377298-18.4585942-18.6357838v-22.26518922c0-1.07264864.4816212-1.54951351 1.5495132-1.54951351"/><path d="m147.830249.11582703c.831243 0 1.662486.59459459 3.09427 1.96216216l21.433946 20.12702701v-19.76789188c0-1.0667027.476865-1.54951351 1.549513-1.54951351h7.200541c1.071459 0 1.607784.48281081 1.607784 1.54951351v38.58086488c0 1.490054-.412649 2.3212973-1.430595 2.3212973-.831243 0-1.662486-.5945946-3.09427-1.9621622l-21.429189-20.127027v19.7678919c0 1.0714594-.476865 1.5483243-1.608973 1.5483243h-7.205298c-1.071459 0-1.549513-.4768649-1.549513-1.5483243v-38.58086488c0-1.48529729.418594-2.32129729 1.431784-2.32129729"/><path d="m198.50493 10.4155135h-9.404108c-1.072649 0-1.554271-.47210809-1.554271-1.5495135v-6.42756757c0-1.06789189.481622-1.54951351 1.554271-1.54951351h30.956973c1.071459 0 1.544756.48162162 1.544756 1.54951351v6.42756757c0 1.07740541-.473297 1.5495135-1.544756 1.5495135h-9.404109c-.65881 0-.895459.2414054-.895459.8954595v29.7071351c0 1.0726487-.476865 1.5495135-1.548324 1.5495135h-7.264757c-1.072649 0-1.544757-.4768648-1.544757-1.5495135v-29.7071351c0-.6540541-.241405-.8954595-.895459-.8954595"/><path d="m244.019243 26.3726486c0-.1236756 0-.2996756-.123675-.4721081l-3.864865-8.2232432-3.870811 8.2232432c-.11773.1724325-.177189.3484325-.177189.4721081 0 .2996757.235459.4185946.654054.4185946h6.728432c.476865 0 .654054-.1189189.654054-.4185946m-3.81254-26.3726486c1.132108 0 1.963351.77178378 3.158486 3.15254054l18.631027 37.44875676c.240216.4185946.299676.7777297.299676 1.0726486 0 .6540541-.476865.8954595-1.308108.8954595h-7.564433c-1.485297 0-1.962162-.2414054-2.557946-1.5495135l-2.321297-4.9434595c-.299676-.654054-.476865-.7717838-1.130919-.7717838h-14.766162c-.652865 0-.830054.1177298-1.130919.7717838l-2.261838 4.9434595c-.595784 1.3081081-1.072648 1.5495135-2.503243 1.5495135h-7.26c-.836 0-1.372324-.2414054-1.372324-.8954595 0-.2949189.059459-.654054.299675-1.0726486l18.631027-37.44875676c1.196325-2.38075676 1.966919-3.15254054 3.157298-3.15254054"/><path d="m268.138022.88987027h7.205297c1.130919 0 1.608973.47686487 1.608973 1.54951351v38.57967572c0 1.0678919-.478054 1.5495135-1.608973 1.5495135h-7.205297c-1.066703 0-1.549514-.4816216-1.549514-1.5495135v-38.57967572c0-1.07264864.482811-1.54951351 1.549514-1.54951351"/><path d="m287.408951.11582703c.836 0 1.667244.59459459 3.094271 1.96216216l21.433946 20.12702701v-19.76789188c0-1.0667027.476864-1.54951351 1.549513-1.54951351h7.205297c1.072649 0 1.603027.48281081 1.603027 1.54951351v38.58086488c0 1.490054-.412648 2.3212973-1.425837 2.3212973-.836 0-1.667244-.5945946-3.094271-1.9621622l-21.433946-20.127027v19.7678919c0 1.0714594-.476865 1.5483243-1.607783 1.5483243h-7.200541c-1.077405 0-1.549513-.4768649-1.549513-1.5483243v-38.58086488c0-1.48529729.412648-2.32129729 1.425837-2.32129729"/><path d="m368.442086 15.4842947c0-3.8835789-2.609894-5.4536842-7.882947-5.4536842h-3.772421c-.694737 0-.868421.2362106-.868421.8707369v9.3951579c0 .6368421.173684.8661052.868421.8661052h3.772421c5.099369 0 7.882947-1.8549473 7.882947-5.6783158m-21.106105-14.7307368h13.628421c11.884632 0 17.912632 4.81452631 17.912632 14.6705263 0 9.9185263-6.491158 15.015579-18.317895 15.015579h-3.772421c-.694737 0-.868421.2362105-.868421.8730526v8.524421c0 1.0397895-.463158 1.5052632-1.565474 1.5052632h-7.016842c-1.042105 0-1.509895-.4654737-1.509895-1.5052632v-37.57599996c0-1.04210526.46779-1.50757894 1.509895-1.50757894"/><path d="m407.08335 14.6137895c0-3.3625263-2.436211-4.5829474-7.072421-4.5829474h-4.409264c-.692421 0-.868421.2385263-.868421.8730526v7.5934737c0 .6993684.176.9286316.868421.9286316h4.409264c4.867789 0 7.072421-1.6256842 7.072421-4.8122105m-20.932421-13.86000003h14.265263c11.423789 0 17.102105 4.52736842 17.102105 13.33663163 0 5.7987368-2.783579 9.6267368-7.009895 11.7711578l8.982948 13.6261053c.291789.407579.407579.7526316.407579 1.0444211 0 .5210526-.465474.8105263-1.333895.8105263h-7.827369c-1.625684 0-2.378315-.4654737-3.188842-1.7368421l-6.556-10.5530527c-.405263-.6414736-.752631-.8174736-1.505263-.8174736h-3.885895c-.692421 0-.868421.176-.868421.8730526v10.7267368c0 1.0421053-.465473 1.507579-1.565473 1.507579h-7.016842c-1.03979 0-1.507579-.4654737-1.507579-1.507579v-37.57136839c0-1.04210526.467789-1.50989474 1.507579-1.50989474"/><path d="m455.083876 21.1077263c0-7.1928421-4.925684-11.82905262-11.308-11.82905262-6.433263 0-11.245474 4.69873682-11.245474 11.82905262 0 7.0724211 4.754316 11.7132632 11.189895 11.7132632 6.377684 0 11.363579-4.6964211 11.363579-11.7132632m-11.308-21.10610525c12.641895 0 21.742947 8.756 21.742947 21.05052635 0 12.3454737-9.156631 21.0458947-21.856421 21.0458947-12.465894 0-21.569263-8.6425263-21.569263-20.9347368 0-12.34547372 9.163579-21.16168425 21.682737-21.16168425"/><path d="m470.732592 32.5926526c.639158 0 1.507579.176 2.552.176 2.552 0 4.291158-1.9753684 4.291158-5.7431579v-24.76505259c0-1.03978948.465473-1.50757895 1.567789-1.50757895h7.012211c1.044421 0 1.509894.46778947 1.509894 1.50757895v25.45978949c0 8.8162105-3.596421 14.3254737-13.047158 14.3254737-1.565473 0-3.362526-.1204211-4.464842-.4122106-1.1-.2848421-1.333894-.7526315-1.213473-1.9105263l.634526-5.6829473c.118105-1.1046316.405263-1.4473685 1.157895-1.4473685"/><path d="m498.730023.75402105h24.352842c1.044421 0 1.565474.46778948 1.565474 1.50757895v6.26189474c0 1.10231579-.521053 1.50757896-1.565474 1.50757896h-14.899789c-.697053 0-.873053.2362105-.873053.8730526v4.5204211c0 .6970526.176.868421.873053.868421h12.984632c1.042105 0 1.509894.4654737 1.509894 1.5677895v6.204c0 1.0467368-.467789 1.5052632-1.509894 1.5052632h-12.984632c-.697053 0-.873053.2315789-.873053.8730526v4.752c0 .6391579.176.8707368.873053.8707368h14.955368c1.044421 0 1.56779.4052632 1.56779 1.507579v6.2618947c0 1.0421053-.523369 1.507579-1.56779 1.507579h-24.408421c-1.044421 0-1.507579-.4654737-1.507579-1.507579v-37.5736842c0-1.03978947.463158-1.50757895 1.507579-1.50757895"/><path d="m566.94855 35.3111579c0 .4075789-.289474.8128421-.870737 1.3362105-4.054948 3.3625263-9.334948 5.4513684-15.186948 5.4513684-12.352421 0-21.573894-8.8138947-21.573894-20.8166315 0-12.29221056 9.277052-21.2821053 22.034737-21.2821053 5.914526 0 11.013894 2.14673684 14.962315 5.45368421.458527.40757895.690106.75494737.690106 1.10231579 0 .34505263-.111158.63684211-.402948 1.04210526l-3.362526 4.75431584c-.349684.5233684-.697053.7549473-1.102316.7549473-.349684 0-.754947-.176-1.157895-.4677895-2.665473-1.9128421-5.914526-3.36252627-9.682315-3.36252627-6.669474 0-11.537264 4.75663157-11.537264 11.83136847 0 6.8408421 4.812211 11.7109473 11.537264 11.7109473 3.883579 0 7.072421-1.3315789 9.800421-3.420421.458526-.3473685.80821-.5210527 1.155579-.5210527.405263 0 .697052.2292632 1.042105.6947369l3.306947 4.752c.233895.3496842.347369.6970526.347369.9865263"/><path d="m580.903265 10.0317684h-9.161263c-1.044421 0-1.509894-.46084208-1.509894-1.50757893v-6.26189473c0-1.04210527.465473-1.50757895 1.509894-1.50757895h30.151579c1.044421 0 1.505263.46547368 1.505263 1.50757895v6.26189473c0 1.04673685-.460842 1.50757893-1.505263 1.50757893h-9.161263c-.636842 0-.873053.2362105-.873053.8707369v28.9334736c0 1.0397895-.458526 1.507579-1.502947 1.507579h-7.077053c-1.042105 0-1.502947-.4677895-1.502947-1.507579v-28.9334736c0-.6345264-.238526-.8707369-.873053-.8707369"/></g><path d="m100 34.6671c0-5.104-2.771-9.861-7.231-12.414l-35.538-20.333c-2.195-1.256-4.696-1.92-7.231-1.92s-5.036.664-7.231 1.92l-35.538 20.333c-4.46 2.553-7.231 7.31-7.231 12.414v40.666c0 5.105 2.771 9.861 7.232 12.413l35.536 20.333c2.196 1.257 4.697 1.921 7.232 1.921s5.036-.664 7.231-1.921l35.538-20.333c2.325-1.33 4.184-3.263 5.438-5.528 1.152-2.08 1.793-4.442 1.793-6.885z" fill="#336799"/><path d="m59.1367 64.6173c-.147.12-.355.282-.593.461-.119-.094-.24-.19-.296-.259-1.109-1.343-3.634-5.099-4.154-5.73-.38-.461-1.045-1.21-1.263-1.285.634-1.066 1.742-2.984 2.85-4.859.228.309.469.632.731.985 0 0 1.112 1.729 2.08 4.27.607 1.283.902 3.252.902 3.252l.399.139c.017.338.068.755.148 1.186-.194.883-.494 1.457-.804 1.84m8.512-29.498 1.717-6.572.164-.264s.513-.417.799-.857c0 0 .223-.332.287-.68 0 0 .134-.45.237-.716 7.452 6.76 18.53 16.816 22.719 20.647v-12.01c0-2.845-1.532-5.474-4.018-6.897l-35.536-20.333c-1.243-.711-2.63-1.067-4.018-1.067-1.387 0-2.774.356-4.017 1.067l-35.536 20.333c-2.487 1.423-4.018 4.052-4.018 6.897v12.01c5.061-4.569 21.943-19.718 21.943-19.718.151-.135.386-.259.682-.259.327 0 .561.144.712.291l7.495 7.223c.363.362.397.916.166 1.261l-6.398 9.603c-.32.504-.155 1.077.203 1.356.398.313.956.316 1.353-.052l29.658-26.935c.201-.183.468-.255.675-.255s.476.071.676.255c0 0 2.275 2.063 5.605 5.082-.066.125-.155.287-.28.504 0 0-.248.48-.368.819-.073.208-.232.678-.319 1.054-.054.236-.222.857-.222.857s-.076.349-.12.484c-.379 1.165-1.49 3.064-1.654 3.397l-1.032 2.282s-.687 1.437-1.187 3.312c0 0-2.254 3-4.385 5.856l-.006-.012c-.215.215-.716.564-1.27.715-.292-.384-.659-.944-.683-.976-.057-.079-.174-.299-.097-.582.078-.283.489-.855.489-.855.196-.201.227-.528.121-.684-.107-.159-.297-.246-.361-.283-.061-.036-.117-.167-.108-.261.009-.095-.158-.164-.158-.164l-.299.075-.075.009.017-.381s-.011-.092-.141-.107c-.064-.008-.286-.199-.274-.269.013-.07.07-.262.07-.553 0-.239-.225-.203-.225-.203s-.981-.019-1.051-.028c-.068-.008-.306-.141-.377-.232-.07-.092-.183-.194-.183-.194-.155-.084-1.097-.26-1.235-.248-.137.011-.734-.094-.79-.144-.056-.052-.338-.171-.558-.289-.22-.117-1.053.513-1.258.655-.204.14-.978.972-1.442 1.763-.098.166-.164.324-.217.485-.001.001-.002 0-.004.001l-.453.969s-.187.097-.281.187c-.193.173-.295.54-.295.54s-.214 1.09-.351 1.588c0 0-.129.939-.209 1.324-.048.234-.21 1.624-.247 1.844-.037.219-.131 1.248-.131 1.248s-.078.611-.077.993c.001.312.191.455.235.488.043.032.331.222.331.222s-.261 1.33.337 2.31c0 0 .025-.307.326-.822 0 0 .389.343.158 1.289 0 0 .538-.224.624-1.298l.209-.677s.103.666.802 1.036c0 0-.538-1.218-.57-1.727-.035-.576.046-1.15.046-1.15s.256.335.188 1.01c0 0 .534-1.276-.158-3.383-.152-.547-.345-1.58-.558-2.469-.047-.192-.155-.971-.168-1.109-.019-.182.083-.275.083-.275.026.009.258.245.345.303.079.19.212.462.449.777l.047.046s.552.686 1.824 1.105c.011.005.032.014.038.017.14.059.637.174 1.079.178.49.003.736-.167.978-.223.235-.055.469.125.469.125s.242.307.509.644l-.001.015s.158.293.001.596c-.835.843-2.006 2.23-1.985 3.404 0 0 .005.008.005.009-1.336 2.852-3.131 7.364-3.334 7.823 0 0-.24.568-.25 1.003-.024.322.315.553.523.82.127.163.475.671.625.849.559.66 1.112 1.175 1.778 1.836l4.718 4.218c-.389.241-.804.478-1.232.684.046 1.83 2.707 4.286 2.707 4.286 1.974.084 2.843-1.716 2.843-1.716-.03-1.739-1.514-4.001-1.514-4.001l-.262-.43c.196-.324.356-.678.489-1.06.118.327.258.648.451.936 0 0 1.042 1.466 2.752 1.757.671.555 4.324 3.36 10.863 4.634.051.11.101.23.151.374.124.363.51 1.751.629 2.059.229.585.714 1.642 1.464 2.82l1.812 2.849.423-.068c.171.275.365.709.213 1.107 0 0-1.409.948.033 2.706 0 0 .315.205.601.165.514-.072 1.17.091 1.989 1.015 0 0 1.068 1.256 2.195 1.085l.9-.257s.782-.197-.571-1.915c-.956-1.214-1.097-1.667-1.558-2.117s-1.068-.846-1.068-.846l-.916-2.373.148-.29-1.246-2.821-2.18-5.247c-.104-.321.01-.896-.367-1.313.002-.002-.167-.199-.317-.298-.23-.164-.48-.315-.74-.447l-6.573-4.283s2.12.112 7.732-3.53c.642.6 2.056 1.285 3.127 1.542 2.005.482 4.07 1.285 4.07 1.285s.156-.08.244-.404c0 0 1.244.282 2.227.851.085.065.128.141.175.251 0 0-.147.239-.125.375.023.136.5.318.5.318s.773 1.249 1.48.911c0 0 .888-.277 1.083-.879 0 0 .203-1.032 1.759-1.624 0 0 1.556-.592 1.898-1.644 0 0 .531-1.225-1.546-.769l-2.664.915-1.702.561-2.393-1.272c.003-.128-.029-.173-.029-.173l-1.675-.776c-.903-.573-3.136-1.968-4.552-2.644-.357-.201-.778-.422-.777-.424-.688-.34-.571-.657-1.956-.229l-9.731 2.693c-.387-.757-1.268-2.572-1.475-3.81l-1.13-3.604s1.377-1.126.776-2.348c0 0-.092-.217-.725-.748 0 0-.668-.556-1.488-1.347 1.484-2.898 3.646-6.926 4.213-8.343 0 0 .66-1.299 1.038-3.025" fill="#fff"/></g></svg>